<svg xmlns="http://www.w3.org/2000/svg" xmlns:xlink="http://www.w3.org/1999/xlink" version="1.1" id="Layer_1" x="0px" y="0px" width="100%" viewBox="0 0 1024 1024" enable-background="new 0 0 1024 1024" xml:space="preserve">
<path fill="#FF7F27" opacity="1.000000" stroke="none" d=" M1025.000000,174.000015   C1025.000000,399.026855 1025.000000,624.053711 1024.701904,849.305725   C1024.212280,849.695862 1024.020630,849.860901 1023.586182,850.208862   C1023.236450,850.952454 1023.129639,851.513062 1023.015381,852.039917   C1023.007874,852.006226 1023.076843,852.007263 1022.731445,851.994873   C1013.543945,858.929077 1005.243408,866.746887 995.750793,872.646606   C973.843750,886.262085 949.154968,891.294189 923.795471,891.113831   C911.422363,891.025879 899.013367,888.126526 887.088806,883.215515   C866.053162,874.552124 850.088013,860.724243 838.836365,841.113037   C837.052429,838.003723 837.570984,835.925720 840.256287,833.850342   C848.386047,827.566895 856.759583,821.552856 864.484985,814.800964   C884.164673,797.601257 903.022766,779.475220 918.434448,758.272583   C934.179260,736.611755 948.129944,713.903381 959.409119,689.396790   C972.715393,660.486328 981.887207,630.478149 987.606750,599.373108   C990.233521,585.087830 992.148315,570.518555 992.593933,556.022888   C993.190979,536.599243 991.982910,517.123169 991.676880,497.667664   C991.439209,482.555817 989.290161,467.704071 985.895569,453.019653   C982.984741,440.428101 980.513062,427.687988 976.739136,415.352600   C968.638916,388.876984 957.529053,363.661743 943.634094,339.640350   C932.196045,319.866455 919.782898,300.685730 904.133179,284.138702   C888.285522,267.382355 872.954285,249.822189 853.709839,236.659439   C837.417969,225.516205 821.059814,214.399185 804.110901,204.312515   C793.016418,197.709961 781.003906,192.516647 769.055969,187.520920   C758.182495,182.974457 747.002563,178.974869 735.663574,175.777115   C722.918396,172.182800 709.750916,170.109253 696.935547,166.734604   C680.651184,162.446457 663.954529,160.776215 647.360657,160.410049   C612.713745,159.645538 578.059326,159.219055 543.754395,166.823944   C525.224121,170.931839 507.021179,175.660507 489.105164,181.868713   C464.610352,190.356613 441.438416,201.477921 419.381378,215.026733   C399.504791,227.236176 380.696686,240.878128 364.242889,257.471893   C353.017273,268.792999 342.308838,280.627808 331.397308,292.259338   C318.238678,306.286224 307.782166,322.310669 298.372620,338.922302   C290.679260,352.504089 284.004333,366.687592 277.371246,380.835632   C273.494659,389.104187 269.938049,397.637634 267.386902,406.387054   C263.022186,421.356293 259.018036,436.477142 255.876282,451.742950   C252.947174,465.975403 249.570496,480.472443 249.512405,494.865601   C249.387894,525.725891 246.495163,556.749390 252.358337,587.466980   C254.092407,596.551758 254.691437,605.867676 256.673157,614.888123   C263.198090,644.588257 273.507599,673.060486 286.984375,700.250549   C293.602448,713.602905 301.475006,726.441895 309.854675,738.783447   C318.961884,752.196594 328.333740,765.680054 339.352722,777.488098   C357.012787,796.413025 374.812561,815.445923 396.664642,829.869263   C409.544281,838.370422 422.135620,847.453979 435.662567,854.789429   C450.394440,862.778320 465.736420,869.899170 481.405212,875.833008   C497.979462,882.109497 515.116821,887.053284 532.269958,891.589417   C542.614685,894.325073 553.445374,895.260620 564.081665,896.844360   C572.242676,898.059509 580.459351,900.058105 588.619690,899.914307   C618.978333,899.379272 649.478638,902.653320 679.671143,896.788391   C688.592163,895.055481 697.669922,894.139648 706.611206,892.497131   C712.673401,891.383545 713.729797,891.859863 716.075378,897.337891   C723.907898,915.631165 734.238464,932.501099 746.353638,948.220032   C754.392273,958.650024 764.118225,967.468384 775.064819,974.851318   C786.341064,982.456665 797.281189,990.667603 809.069946,997.381836   C828.899536,1008.675781 850.705566,1014.791138 872.809326,1019.523376   C866.102539,1020.929077 859.579895,1021.959595 853.083069,1023.133118   C852.624573,1023.215881 852.356567,1024.353027 852.000000,1025.000000   C626.306458,1025.000000 400.612946,1025.000000 174.711594,1024.615845   C173.830383,1023.830139 173.203918,1023.225464 172.476578,1023.057312   C160.645111,1020.322754 148.533096,1018.479309 137.012024,1014.787964   C107.812759,1005.432678 82.475677,989.296326 60.579769,967.947021   C48.488762,956.157715 38.316555,942.806580 29.510748,928.270447   C15.580046,905.274353 6.523730,880.721863 2.922599,854.104675   C2.817872,853.330566 1.664449,852.698364 0.999997,852.000000   C1.000000,626.306458 1.000000,400.612946 1.384164,174.711578   C2.169888,173.830322 2.774579,173.203857 2.942690,172.476471   C5.677208,160.644989 7.520696,148.532990 11.212031,137.011887   C20.567411,107.812675 36.703644,82.475571 58.053162,60.579784   C69.842499,48.488792 83.193443,38.316452 97.729637,29.510668   C120.725754,15.580010 145.278244,6.523661 171.895477,2.922604   C172.669510,2.817884 173.301682,1.664456 174.000000,1.000001   C399.693512,1.000000 625.387024,1.000000 851.288452,1.384168   C852.169739,2.169893 852.796204,2.774573 853.523560,2.942683   C865.355103,5.677208 877.467163,7.520719 888.988342,11.212060   C918.187744,20.567532 943.525085,36.703876 965.420837,58.053707   C977.511475,69.842934 987.683899,83.193573 996.489502,97.729645   C1010.419983,120.725822 1019.476440,145.278244 1023.077271,171.895523   C1023.182007,172.669571 1024.335571,173.301712 1025.000000,174.000015  z"/>






<path fill="#FF7F28" opacity="1.000000" stroke="none" d=" M813.107666,658.017761   C800.653503,681.108276 785.080994,701.372009 765.713989,718.490173   C749.397339,732.912170 731.079102,744.420471 710.556580,751.955933   C698.571289,756.356750 686.319763,760.053711 674.102844,763.788757   C670.500488,764.890137 666.620911,765.155884 662.844482,765.601685   C655.299927,766.492310 647.754517,767.673523 640.180847,767.948975   C629.197815,768.348389 618.189087,768.110413 607.191956,768.038025   C589.008606,767.918396 571.417847,764.357300 553.874695,759.714478   C536.974854,755.241821 521.201477,748.244080 506.192566,739.727417   C496.021515,733.956055 486.325256,726.925537 477.605011,719.129028   C467.219391,709.843506 457.735840,699.456970 448.579803,688.923096   C443.169373,682.698425 439.032806,675.340698 434.525848,668.361633   C423.684174,651.573242 416.220428,633.215637 410.976227,614.065063   C407.440063,601.151917 404.774445,587.932556 402.734924,574.693726   C399.906616,556.335327 398.014191,537.797424 399.058594,519.183167   C399.677795,508.147491 401.280396,497.163727 402.541199,486.168091   C404.627960,467.969391 408.587769,450.202759 414.796783,432.938843   C421.584961,414.064667 430.058777,395.990540 441.965088,379.834869   C450.011566,368.916626 458.348877,357.954071 468.096588,348.620056   C478.089783,339.050995 489.689728,331.057739 501.071991,323.066406   C516.472900,312.253601 534.030029,305.725983 551.862671,300.307617   C561.310059,297.437073 571.386719,296.710999 581.038513,294.423187   C597.059448,290.625671 613.328369,290.369965 629.559265,291.028259   C642.087952,291.536407 654.636353,293.046387 667.032166,295.015961   C688.495728,298.426270 708.892090,305.479126 728.129089,315.567993   C742.753052,323.237549 756.510193,332.271912 768.043762,344.297577   C776.907349,353.539337 786.196960,362.434418 794.371948,372.253937   C800.288208,379.360291 805.399475,387.366882 809.601624,395.617828   C816.371521,408.910370 823.153076,422.374603 827.953430,436.440735   C832.418030,449.523041 834.324585,463.481201 837.314758,477.063141   C843.029236,503.019257 840.590088,529.367432 840.769714,555.564270   C840.823669,563.428467 839.078064,571.342529 837.767029,579.168396   C836.347229,587.643250 834.656433,596.083557 832.757324,604.464966   C828.550720,623.030151 822.132751,640.812866 813.107666,658.017761  z"/>
</svg>